<mxfile host="app.diagrams.net" modified="2024-04-15T03:58:02.052Z" agent="Mozilla/5.0 (Windows NT 10.0; Win64; x64) AppleWebKit/537.36 (KHTML, like Gecko) Chrome/122.0.0.0 Safari/537.36 Edg/122.0.0.0" etag="dz953K6y9E49cz3BTJfb" version="24.2.3" type="github">
  <diagram name="第 1 页" id="7BEi9k5wlG2qpi-9nwc9">
    <mxGraphModel dx="1212" dy="623" grid="1" gridSize="10" guides="1" tooltips="1" connect="1" arrows="1" fold="1" page="1" pageScale="1" pageWidth="1169" pageHeight="827" math="0" shadow="0">
      <root>
        <mxCell id="0" />
        <mxCell id="1" parent="0" />
      </root>
    </mxGraphModel>
  </diagram>
</mxfile>
